<svg xmlns="http://www.w3.org/2000/svg" viewBox="0 0 500 500">
    <g transform="matrix(0.95, 0, 0, 0.95, 27.582308, 29.182461)" stroke="currentColor" fill="none">
        <g stroke-width="24" transform="matrix(1.769,0,0,1.769,-80.95,-211.97)">
            <path id="rect1" transform="rotate(15,-201,199.7)"
                d="M 149.8 161.5 L 112.6 162.1 C 108.1 162.1 104.6 158.5 104.6 154.1 L 104.6 45.4 C 104.6 40.9 108.1 37.4 112.6 37.4 L 277.9 37.4 C 282.3 37.4 285.9 40.9 285.9 45.4 L 284.428 159.211"></path>
            <path stroke-linecap="round" stroke-linejoin="round"
                d="m 140.4 130.7 63.4 87.3 c 32.8-14.6 88.9-41.4 98.5-43.9"></path>
        </g>
        <path stroke-linecap="round" stroke-linejoin="round" stroke-width="32"
            d="M 98.179 370.456 C 235.079 411.756 250 396.8 322 411.6 C 334.9 414.2 350.2 410.6 386.3 438.3 C 417.1 413.8 413.8 412.7 463.8 371 C 422.9 312.6 408.192 287.678 361 253.9 C 357.33 249.466 352.576 246.056 347.2 244 L 212.7 216.3 C 198.5 215.3 189 217.1 184 221.8 C 178.762 228.836 176.05 237.432 176.3 246.2 C 178.7 252.5 186.2 258.3 198.6 263.7 L 292.4 298.8 C 281 307.9 255.7 323.4 243.5 326.3 C 220.8 331.6 172.278 320.804 142.604 313.435 C 103.504 289.135 78.9 283 43.5 252.9 C 26.1 241.7 22.9 234 8.8 241.7 C -5 249.2 -5.8 262 -1.7 278.5 C 15.8 319.6 57.979 347.856 98.179 370.456 Z"></path>
    </g>
</svg>