<?xml version="1.0" encoding="UTF-8" standalone="no"?>
<svg
   fill="none"
   viewBox="0 0 473.65436 444.45831"
   version="1.1"
   id="svg2"
   xmlns="http://www.w3.org/2000/svg"
   xmlns:svg="http://www.w3.org/2000/svg">
   <defs
      id="defs2" />
   <g
      stroke="currentColor"
      stroke-width="8"
      transform="matrix(1.769,0,0,1.769,-80.950603,-211.97519)"
      id="g1">
      <path
         id="rect1"
         transform="rotate(15,-201,199.7)"
         style="fill:#09161a"
         d="m 112.6,37.400002 h 165.3 c 4.432,0 8,3.568 8,8 V 154.1 c 0,4.432 -3.568,8 -8,8 H 112.6 c -4.432,0 -8,-3.568 -8,-8 V 45.400002 c 0,-4.432 3.568,-8 8,-8 z" />
      <path
         stroke-linecap="round"
         stroke-linejoin="round"
         d="m 140.49469,130.7255 63.44149,87.39788 c 32.84809,-14.66465 88.98928,-41.4822 98.54427,-43.99392"
         id="path1" />
   </g>
   <path
      fill="#09161a"
      stroke="currentColor"
      stroke-linecap="round"
      stroke-linejoin="round"
      stroke-width="12"
      d="m 120.8074,365.06001 c 136.97546,41.38808 129.23791,31.83715 201.23669,46.61638 12.93039,2.65423 28.28554,-1.03351 64.32861,26.78208 30.87591,-24.59386 27.52783,-25.68946 77.53345,-67.38608 -40.98713,-58.43513 -75.76817,-75.98733 -102.83977,-117.17202 a 33.4,33.4 0 0 0 -13.87383,-9.99384 L 212.79483,216.31864 c -14.27191,-1.09207 -23.75423,0.84072 -28.70061,5.54214 a 39,39 0 0 0 -7.77234,24.43626 c 2.47829,6.32757 9.96015,12.15094 22.32753,17.54798 l 93.84113,35.18809 c -11.48019,9.17907 -36.70079,24.62321 -48.93366,27.52267 C 230.95025,325.80554 164.96397,316.54807 151.78304,309.1465 112.58468,284.76663 88.952191,277.05719 53.489666,246.91073 35.993991,235.663 32.875382,227.97897 18.735396,235.6933 4.9294978,243.27203 4.0410868,256.05447 8.2134508,272.52994 25.792953,313.7058 80.61914,342.51863 120.8074,365.06001"
      id="path2" />
</svg>