<svg xmlns="http://www.w3.org/2000/svg" viewBox="0 0 512 450" fill="none">
    <g stroke="#000" stroke-width="8"
        transform="matrix(1.769, 0, 0, 1.769, -137.199997, -127.600006)">
        <rect width="181.3" height="124.7" x="104.6" y="37.4" rx="8"
            style="transform-box:fill-box;transform-origin:50% 50%"
            transform="rotate(15 -201 199.7)" fill="#fff"></rect>
        <path stroke-linecap="round" stroke-linejoin="round" d="m161.2 104.8 83.9 68 83.8-68"
            style="transform-box:fill-box;transform-origin:50% 50%" transform="rotate(15 0 0)"></path>
    </g>
    <path fill="#fff" stroke="#000" stroke-linecap="round" stroke-linejoin="round" stroke-width="12"
        d="M 157.13 392.021 C 299.63 405.021 290.13 397.221 363.63 397.221 C 376.83 397.221 391.13 390.521 432.03 410.521 C 457.33 380.221 453.83 379.821 494.43 328.921 C 442.53 279.921 404.93 269.721 370.13 234.821 C 365.625 231.174 360.249 228.761 354.53 227.821 L 217.33 227.821 C 203.13 229.621 194.23 233.421 190.33 239.021 C 186.581 246.974 185.63 255.96 187.63 264.521 C 191.33 270.221 199.83 274.421 213.03 277.221 L 312.03 292.821 C 302.63 304.121 281.03 324.321 269.63 329.621 C 257.13 331.421 190.63 335.621 176.23 331.021 C 132.93 315.021 108.23 312.221 67.43 289.821 C 48.03 282.321 43.43 275.421 31.13 285.821 C 19.13 296.021 20.83 308.721 28.23 324.021 C 53.73 360.821 113.23 378.021 157.13 392.021 Z"
        style="transform-box: fill-box; transform-origin: 50% 50%;"
        transform="matrix(0.979575, 0.201078, -0.201078, 0.979575, -0.000001, 0.000001)"></path>
</svg>